<?xml version="1.0" encoding="UTF-8" standalone="no"?><!DOCTYPE svg PUBLIC "-//W3C//DTD SVG 1.1//EN" "http://www.w3.org/Graphics/SVG/1.1/DTD/svg11.dtd"><svg width="100%" height="100%" viewBox="0 0 1080 1080" version="1.1" xmlns="http://www.w3.org/2000/svg" xmlns:xlink="http://www.w3.org/1999/xlink" xml:space="preserve" xmlns:serif="http://www.serif.com/" style="fill-rule:evenodd;clip-rule:evenodd;stroke-linejoin:round;stroke-miterlimit:2;"><path d="M1080,155.204l0,769.593c0,85.659 -69.544,155.204 -155.204,155.204l-769.593,0c-85.659,0 -155.204,-69.544 -155.204,-155.204l0,-769.593c0,-85.659 69.544,-155.204 155.204,-155.204l769.593,0c85.659,0 155.204,69.544 155.204,155.204Z"/><g><g><path d="M230.99,726.334c0,-15.378 2.408,-29.941 7.223,-43.688c4.815,-13.747 11.572,-26.523 20.271,-38.329c8.543,-11.65 18.757,-21.747 30.639,-30.29c11.883,-8.543 24.659,-15.145 38.329,-19.805c6.835,-2.33 13.941,-4.116 21.32,-5.359c7.378,-1.243 14.873,-1.864 22.485,-1.864c15.689,0 30.445,2.446 44.27,7.339c13.825,4.893 26.484,11.456 37.979,19.688c13.203,9.786 23.921,20.698 32.154,32.737c8.233,12.038 14.368,23.96 18.407,35.765c2.33,6.99 4.116,14.135 5.359,21.436c1.243,7.301 1.864,14.757 1.864,22.368c0,15.223 -2.369,30.057 -7.106,44.503c-4.738,14.446 -11.378,27.649 -19.922,39.61c-8.699,11.805 -18.989,22.096 -30.872,30.873c-11.883,8.776 -24.582,15.494 -38.096,20.154c-14.135,4.971 -28.814,7.456 -44.037,7.456c-15.533,0 -30.29,-2.485 -44.27,-7.456c-13.98,-4.971 -26.717,-11.728 -38.212,-20.271c-11.65,-8.699 -21.786,-18.873 -30.406,-30.523c-8.621,-11.65 -15.339,-24.853 -20.155,-39.61c-2.33,-6.99 -4.116,-14.252 -5.359,-21.785c-1.243,-7.534 -1.864,-15.184 -1.864,-22.951Zm54.755,0.466c0,9.475 1.476,18.795 4.427,27.96c2.951,9.165 6.99,17.242 12.116,24.232c5.592,7.767 11.961,14.33 19.106,19.688c7.145,5.359 14.834,9.359 23.067,11.999c8.699,3.107 17.708,4.66 27.028,4.66c9.32,0 18.252,-1.514 26.795,-4.543c8.543,-3.029 16.31,-7.262 23.3,-12.698c6.99,-5.281 13.126,-11.611 18.407,-18.99c5.281,-7.378 9.32,-15.495 12.116,-24.348c1.398,-4.349 2.485,-8.854 3.262,-13.514c0.777,-4.66 1.165,-9.475 1.165,-14.446c0,-9.165 -1.476,-18.135 -4.427,-26.912c-2.951,-8.776 -6.99,-16.659 -12.116,-23.649c-10.873,-14.757 -24.853,-25.164 -41.94,-31.222c-8.543,-2.951 -17.397,-4.427 -26.562,-4.427c-7.456,0 -15.533,1.204 -24.232,3.611c-8.699,2.408 -17.397,6.796 -26.096,13.165c-7.145,5.281 -13.397,11.495 -18.756,18.64c-5.359,7.145 -9.437,14.99 -12.233,23.533c-1.398,4.349 -2.485,8.815 -3.262,13.397c-0.777,4.582 -1.165,9.203 -1.165,13.864Z" style="fill:#fff;fill-rule:nonzero;"/><path d="M587.014,798.797l0,67.803l-54.755,0l0,-277.27l64.075,0l20.737,74.56c1.864,6.369 3.806,13.475 5.825,21.32c2.019,7.844 3.961,15.689 5.825,23.533c1.864,7.844 3.417,14.795 4.66,20.854c2.796,12.893 5.281,24.853 7.456,35.882c2.175,11.029 4.349,22.368 6.524,34.018c0.932,5.592 1.786,11.029 2.563,16.31c0.777,5.437 1.553,10.718 2.33,15.844l4.66,0c-1.243,-8.233 -2.408,-15.65 -3.495,-22.251c-1.087,-6.602 -2.175,-13.397 -3.262,-20.387c-1.087,-6.99 -2.252,-15.3 -3.495,-24.931c-1.087,-6.835 -2.175,-14.562 -3.262,-23.183c-1.087,-8.621 -2.097,-17.164 -3.029,-25.63c-0.932,-8.466 -1.553,-15.961 -1.864,-22.485c-0.466,-5.747 -0.816,-11.378 -1.048,-16.892c-0.233,-5.514 -0.35,-10.835 -0.35,-15.961l0,-70.599l54.755,0l0,277.27l-60.58,0l-21.436,-71.997c-1.553,-4.971 -3.34,-11.184 -5.359,-18.64c-2.019,-7.456 -4.155,-15.417 -6.408,-23.883c-2.252,-8.466 -4.31,-16.815 -6.174,-25.048c-2.641,-11.339 -5.281,-23.028 -7.922,-35.066c-2.641,-12.038 -4.971,-23.883 -6.99,-35.533c-1.087,-5.592 -2.097,-11.106 -3.029,-16.543c-0.932,-5.437 -1.786,-10.64 -2.563,-15.611l-4.66,0c1.553,10.097 3.262,20.776 5.126,32.037c1.864,11.262 3.728,23.184 5.592,35.766c1.553,12.116 3.107,24.348 4.66,36.697c1.553,12.349 2.796,24.426 3.728,36.231c0.311,5.903 0.583,11.689 0.816,17.359c0.233,5.67 0.349,11.145 0.349,16.427Z" style="fill:#fff;fill-rule:nonzero;"/><path d="M836.324,866.6l-116.5,0l0,-277.27l115.335,0l0,51.26l-60.58,0l0,52.891l55.92,0l0,51.26l-55.92,0l0,70.599l61.745,0l0,51.26Z" style="fill:#fff;fill-rule:nonzero;"/></g><g><path d="M109.5,509l0,-238l47,0l0,83.4l35,0l0,-83.4l47,0l0,238l-47,0l0,-110.6l-35,0l0,110.6l-47,0Z" style="fill:#fff;fill-rule:nonzero;"/><path d="M362.5,509l-100,0l0,-238l99,0l0,44l-52,0l0,45.4l48,0l0,44l-48,0l0,60.6l53,0l0,44Z" style="fill:#fff;fill-rule:nonzero;"/><path d="M507.5,333c0,11.867 -2.467,22 -7.4,30.4c-2.267,4 -5.033,7.533 -8.3,10.6c-3.267,3.067 -7.3,5.667 -12.1,7.8c-4.533,1.867 -9.4,3.067 -14.6,3.6l0,3.2c4.8,0 9.667,1.533 14.6,4.6c4.667,3.067 8.333,7.133 11,12.2c0.667,1.333 1.233,2.667 1.7,4c0.467,1.333 0.9,2.667 1.3,4l23.8,95.6l-47,0l-27.8,-100.6l-15.2,0l0,100.6l-47,0l0,-238l70,0c6.4,0 12.567,0.967 18.5,2.9c5.933,1.933 11.3,4.767 16.1,8.5c4.8,3.867 8.833,8.267 12.1,13.2c3.267,4.933 5.833,10.6 7.7,17c1.733,6.533 2.6,13.333 2.6,20.4Zm-80,31.4l11,0c2.533,0 4.967,-0.333 7.3,-1c2.333,-0.667 4.5,-1.733 6.5,-3.2c3.467,-2.8 5.933,-6.8 7.4,-12c0.533,-2.267 0.8,-5.067 0.8,-8.4c0,-7.6 -1.933,-13.633 -5.8,-18.1c-3.867,-4.467 -9.267,-6.7 -16.2,-6.7l-11,0l0,49.4Z" style="fill:#fff;fill-rule:nonzero;"/><path d="M598.7,271l15.2,95.2c0.933,6 1.767,12.567 2.5,19.7c0.733,7.133 1.367,14.9 1.9,23.3c0.4,6.4 0.7,11.9 0.9,16.5c0.2,4.6 0.367,9.2 0.5,13.8c0.133,4.6 0.333,10.233 0.6,16.9c0.133,4 0.2,7.867 0.2,11.6l0,11l4,0c0,-7.333 0.1,-14.867 0.3,-22.6c0.2,-7.733 0.433,-15.6 0.7,-23.6c0.267,-8.4 0.667,-16.367 1.2,-23.9c0.533,-7.533 1.2,-14.967 2,-22.3c0.4,-3.6 0.8,-7.1 1.2,-10.5c0.4,-3.4 0.867,-6.7 1.4,-9.9l15,-95.2l66.2,0l0,238l-47,0l0,-28.2c0,-10.4 0.267,-21.9 0.8,-34.5c0.533,-12.6 1.267,-24.833 2.2,-36.7c0.933,-12.667 1.933,-25.2 3,-37.6c1.067,-12.4 2.267,-24.667 3.6,-36.8c0.533,-6 1.133,-11.867 1.8,-17.6c0.533,-5.733 1.067,-11.267 1.6,-16.6l-4,0c-0.8,8.267 -1.667,16.067 -2.6,23.4c-0.933,7.333 -1.9,14.733 -2.9,22.2c-1,7.467 -2.1,15.733 -3.3,24.8c-1.067,7.6 -2.3,15.733 -3.7,24.4c-1.4,8.667 -2.833,17.267 -4.3,25.8c-1.467,8.533 -2.867,16.4 -4.2,23.6c-1.067,5.867 -2.133,11.6 -3.2,17.2c-1.2,5.6 -2.333,11.067 -3.4,16.4l-6.4,30.2l-36,0l-6.4,-30.2c-1.6,-8 -3.1,-15.533 -4.5,-22.6c-1.4,-7.067 -2.767,-14.367 -4.1,-21.9c-1.333,-7.533 -2.733,-16.033 -4.2,-25.5c-2.4,-14.4 -4.533,-27.9 -6.4,-40.5c-1.867,-12.6 -3.333,-23.7 -4.4,-33.3c-0.8,-5.867 -1.533,-11.667 -2.2,-17.4c-0.667,-5.733 -1.267,-11.267 -1.8,-16.6l-4,0c1.067,10.267 2.2,21.333 3.4,33.2c1.2,11.867 2.4,24.467 3.6,37.8c0.8,9.6 1.5,18.2 2.1,25.8c0.6,7.6 1.167,15.2 1.7,22.8c0.533,7.6 1,16.2 1.4,25.8c0.533,11.867 0.8,23.333 0.8,34.4l0,28.2l-47,0l0,-238l66.2,0Z" style="fill:#fff;fill-rule:nonzero;"/><path d="M836.5,509l-100,0l0,-238l99,0l0,44l-52,0l0,45.4l48,0l0,44l-48,0l0,60.6l53,0l0,44Z" style="fill:#fff;fill-rule:nonzero;"/><path d="M923.3,342.4l0,-14c0,-12.933 -4.333,-19.4 -13,-19.4c-4,0 -7.133,1.533 -9.4,4.6c-2.267,3.067 -3.4,7.467 -3.4,13.2c0,1.733 0.167,3.6 0.5,5.6c0.333,2 1.167,4.133 2.5,6.4c1.067,2 2.667,4.367 4.8,7.1c2.133,2.733 4.8,5.633 8,8.7c1.6,1.733 3.4,3.533 5.4,5.4c1.867,2 4,4.067 6.4,6.2c7.2,6.533 13.833,12.933 19.9,19.2c6.067,6.267 11.033,11.8 14.9,16.6c3.867,5.067 6.933,9.933 9.2,14.6c2.267,4.667 3.933,9.467 5,14.4c0.533,2.533 0.9,5.133 1.1,7.8c0.2,2.667 0.3,5.467 0.3,8.4c0,8 -0.867,15.367 -2.6,22.1c-1.733,6.733 -4.4,12.767 -8,18.1c-3.333,5.067 -7.7,9.4 -13.1,13c-5.4,3.6 -11.3,6.2 -17.7,7.8c-7.067,1.867 -14.667,2.8 -22.8,2.8c-16.4,0 -29.733,-3.533 -40,-10.6c-10.133,-6.933 -16.867,-17.267 -20.2,-31c-1.733,-6.667 -2.6,-14.333 -2.6,-23l0,-21l44,0l0,21.2c0,7.733 1.6,13.733 4.8,18c2.933,4.267 7.467,6.4 13.6,6.4c2.133,0 4.2,-0.3 6.2,-0.9c2,-0.6 3.667,-1.567 5,-2.9c1.2,-1.2 2.333,-2.7 3.4,-4.5c1.067,-1.8 1.867,-4.033 2.4,-6.7c0.133,-1.2 0.267,-2.5 0.4,-3.9c0.133,-1.4 0.2,-2.833 0.2,-4.3c0,-2.8 -0.2,-5.233 -0.6,-7.3c-0.4,-2.067 -1.2,-4.3 -2.4,-6.7c-1.333,-2.4 -3.167,-4.867 -5.5,-7.4c-2.333,-2.533 -5.033,-5.333 -8.1,-8.4c-1.733,-1.6 -3.633,-3.333 -5.7,-5.2c-2.067,-1.867 -4.3,-3.867 -6.7,-6c-7.467,-6.667 -13.967,-12.767 -19.5,-18.3c-5.533,-5.533 -10.233,-10.9 -14.1,-16.1c-3.867,-5.067 -6.9,-9.967 -9.1,-14.7c-2.2,-4.733 -3.833,-9.567 -4.9,-14.5c-0.533,-2.4 -0.9,-4.933 -1.1,-7.6c-0.2,-2.667 -0.3,-5.4 -0.3,-8.2c0,-7.333 0.767,-14.167 2.3,-20.5c1.533,-6.333 3.967,-11.9 7.3,-16.7c6.533,-9.333 16,-15.6 28.4,-18.8c6.133,-1.6 13.133,-2.4 21,-2.4c14.933,0 27.2,3 36.8,9c3.2,2 6.6,5.133 10.2,9.4c3.6,4.267 6.4,10.067 8.4,17.4c1.6,6 2.4,12.667 2.4,20l0,17.6l-44,0Z" style="fill:#fff;fill-rule:nonzero;"/></g><path d="M448,789c-32.287,40.29 -91.21,46.787 -131.5,14.5c-40.29,-32.287 -46.787,-91.21 -14.5,-131.5c32.287,-40.29 91.21,-46.787 131.5,-14.5c40.29,32.287 46.787,91.21 14.5,131.5Z" style="fill:#fff;"/><rect x="412" y="296" width="56.548" height="70" style="fill:#fff;"/></g></svg>