<svg preserveAspectRatio="none" width="100%" height="100%" overflow="visible" style="display: block;" viewBox="0 0 72 72" fill="none" xmlns="http://www.w3.org/2000/svg">
<g id="Frame 1321322911">
<rect width="72" height="72" rx="16" fill="var(--fill-0, #363FF9)"/>
<g id="Vector">
<path d="M51.1003 41.6073L36.2275 16.4124C36.1555 16.288 36.0512 16.1843 35.9251 16.1119C35.7991 16.0395 35.6558 16.0009 35.5096 16C35.3634 15.9991 35.2196 16.0359 35.0926 16.1067C34.9657 16.1775 34.8601 16.2799 34.7865 16.4034L30.3322 23.9529C30.1863 24.1999 30.1096 24.4803 30.1096 24.7657C30.1096 25.051 30.1863 25.3314 30.3322 25.5784L40.0302 42.0149C40.1762 42.2622 40.3863 42.4676 40.6393 42.6103C40.8923 42.753 41.1792 42.828 41.4713 42.8277H50.3798C50.5256 42.8273 50.6688 42.7894 50.795 42.7179C50.9211 42.6464 51.026 42.5437 51.0989 42.4202C51.1719 42.2967 51.2103 42.1566 51.2106 42.014C51.2108 41.8713 51.1728 41.7311 51.1003 41.6073Z" fill="var(--fill-0, white)"/>
<path d="M12.1147 54.7752L26.9875 29.5802C27.0604 29.4568 27.1654 29.3543 27.2917 29.2831C27.4179 29.2118 27.5611 29.1743 27.7068 29.1743C27.8526 29.1743 27.9959 29.2118 28.1221 29.2831C28.2484 29.3543 28.3532 29.4568 28.4262 29.5802L32.8828 37.1229C33.0286 37.3705 33.1054 37.6512 33.1054 37.9368C33.1054 38.2226 33.0286 38.5033 32.8828 38.7508L23.1847 55.1872C23.0392 55.4345 22.8296 55.64 22.577 55.7827C22.3244 55.9254 22.0378 56.0004 21.746 56H12.8352C12.6884 56.0007 12.544 55.9634 12.4168 55.8919C12.2895 55.8203 12.1839 55.717 12.1107 55.5926C12.0375 55.4682 11.9993 55.3269 12 55.1834C12.0007 55.0397 12.0403 54.8989 12.1147 54.7752Z" fill="var(--fill-0, white)"/>
<path d="M28.4241 55.9946H58.1698C58.3156 55.9945 58.459 55.9568 58.5852 55.8853C58.7115 55.8138 58.8163 55.711 58.8891 55.5873C58.9619 55.4636 59.0002 55.3234 59 55.1806C58.9998 55.0379 58.9611 54.8977 58.888 54.7743L54.4383 47.2271C54.2923 46.9797 54.0823 46.7743 53.8293 46.6316C53.5763 46.4889 53.2893 46.414 52.9972 46.4142H33.6012C33.3091 46.414 33.0222 46.4889 32.7692 46.6316C32.5162 46.7743 32.3062 46.9797 32.1602 47.2271L27.706 54.7743C27.6327 54.8977 27.5941 55.0379 27.5939 55.1806C27.5937 55.3234 27.6318 55.4636 27.7047 55.5873C27.7775 55.711 27.8823 55.8138 28.0086 55.8853C28.1349 55.9568 28.2782 55.9945 28.4241 55.9946Z" fill="var(--fill-0, white)"/>
</g>
</g>
</svg>
