<svg preserveAspectRatio="none" width="100%" height="100%" overflow="visible" style="display: block;" viewBox="0 0 34 38" fill="none" xmlns="http://www.w3.org/2000/svg">
<g id="Uniswap_Uniswap_icon_pink_1 1" clip-path="url(#clip0_0_103)">
<path id="Vector" d="M27.6372 5.75865C27.6868 4.86312 27.8051 4.27243 28.043 3.733C28.1371 3.51948 28.2254 3.34473 28.239 3.34473C28.2526 3.34473 28.2117 3.50233 28.148 3.69492C27.975 4.21845 27.9466 4.9345 28.0658 5.76759C28.217 6.82465 28.303 6.97717 29.3915 8.11902C29.902 8.6546 30.4959 9.33005 30.7111 9.62004L31.1025 10.1474L30.7111 9.77055C30.2325 9.30974 29.1315 8.41094 28.8884 8.28247C28.7253 8.1963 28.7011 8.19779 28.6005 8.30055C28.5079 8.39522 28.4883 8.5375 28.4754 9.2101C28.4555 10.2582 28.3162 10.9311 27.9803 11.6038C27.7986 11.9677 27.7699 11.8901 27.9344 11.4793C28.0571 11.1727 28.0696 11.0379 28.0687 10.0232C28.0668 7.98427 27.831 7.49411 26.448 6.65442C26.0977 6.44171 25.5204 6.13493 25.1653 5.97266C24.8101 5.81039 24.5279 5.66907 24.5382 5.65851C24.5774 5.61849 25.9261 6.02255 26.4689 6.23689C27.2764 6.55571 27.4097 6.59702 27.5078 6.55856C27.5735 6.53279 27.6053 6.33628 27.6372 5.75865Z" fill="var(--fill-0, #F50DB4)"/>
<path id="Vector_2" d="M10.5766 2.79248C10.0976 2.71635 10.0773 2.70742 10.3028 2.67193C10.7348 2.60387 11.7548 2.69663 12.4578 2.86786C14.0987 3.26749 15.5919 4.29122 17.1858 6.10937L17.6093 6.59238L18.2151 6.49261C20.767 6.07244 23.3632 6.40637 25.5346 7.43407C26.132 7.7168 27.0739 8.2796 27.1915 8.42423C27.229 8.47033 27.2978 8.76706 27.3444 9.08366C27.5057 10.179 27.425 11.0185 27.098 11.6456C26.9201 11.9869 26.9102 12.095 27.0297 12.387C27.1253 12.6201 27.3915 12.7926 27.6552 12.7922C28.1948 12.7915 28.7756 11.8978 29.0447 10.6543L29.1516 10.1604L29.3634 10.4061C30.5249 11.7544 31.4373 13.5931 31.594 14.902L31.6348 15.2432L31.4395 14.9329C31.1035 14.3992 30.7659 14.0357 30.3336 13.7427C29.5542 13.2144 28.7302 13.0345 26.5478 12.9168C24.5768 12.8103 23.4613 12.6378 22.3552 12.2683C20.4732 11.6396 19.5244 10.8024 17.2889 7.79752C16.2959 6.46283 15.6822 5.72438 15.0717 5.12968C13.6845 3.77843 12.3214 3.06976 10.5766 2.79248Z" fill="var(--fill-0, #F50DB4)"/>
<path id="Vector_3" d="M11.507 9.25598C10.5346 7.88433 9.93293 5.78133 10.0632 4.20926L10.1034 3.72277L10.3249 3.76415C10.7405 3.84184 11.4572 4.11514 11.7928 4.32398C12.7138 4.89702 13.1125 5.65148 13.5181 7.58881C13.637 8.15626 13.7929 8.7984 13.8646 9.01581C13.9801 9.36577 14.4164 10.1831 14.7712 10.714C15.0267 11.0963 14.857 11.2774 14.2922 11.2252C13.4295 11.1455 12.2609 10.3192 11.507 9.25598Z" fill="var(--fill-0, #F50DB4)"/>
<path id="Vector_4" d="M26.4566 19.4641C21.9121 17.5895 20.3114 15.9624 20.3114 13.2168C20.3114 12.8128 20.325 12.4822 20.3416 12.4822C20.3581 12.4822 20.534 12.6156 20.7323 12.7786C21.6538 13.5358 22.6857 13.8592 25.5426 14.2862C27.2237 14.5375 28.1697 14.7405 29.0424 15.037C31.8162 15.9794 33.5322 17.892 33.9415 20.4971C34.0604 21.254 33.9907 22.6735 33.798 23.4217C33.6457 24.0125 33.1812 25.0776 33.058 25.1184C33.0239 25.1298 32.9904 24.9957 32.9816 24.8132C32.9349 23.835 32.4524 22.8827 31.6421 22.1693C30.7208 21.3583 29.483 20.7125 26.4566 19.4641Z" fill="var(--fill-0, #F50DB4)"/>
<path id="Vector_5" d="M23.2661 20.2429C23.2092 19.8958 23.1105 19.4525 23.0467 19.2578L22.9307 18.9038L23.1461 19.1515C23.4442 19.4943 23.6797 19.9328 23.8793 20.5169C24.0317 20.9628 24.0488 21.0954 24.0477 21.8199C24.0465 22.5312 24.0275 22.6802 23.8868 23.0816C23.6649 23.7144 23.3896 24.163 22.9276 24.6447C22.0975 25.5103 21.0303 25.9895 19.4901 26.1883C19.2223 26.2228 18.442 26.281 17.7561 26.3175C16.0273 26.4096 14.8894 26.6 13.8671 26.9677C13.72 27.0207 13.5888 27.0528 13.5754 27.0392C13.5341 26.997 14.2302 26.5719 14.8051 26.2881C15.6159 25.888 16.4229 25.6697 18.2311 25.3611C19.1243 25.2087 20.0467 25.0239 20.281 24.9502C22.493 24.2555 23.6301 22.4624 23.2661 20.2429Z" fill="var(--fill-0, #F50DB4)"/>
<path id="Vector_6" d="M25.3494 24.0333C24.7456 22.7036 24.6069 21.4197 24.9377 20.2222C24.9732 20.0943 25.03 19.9896 25.0643 19.9896C25.0985 19.9896 25.241 20.0685 25.3808 20.165C25.6591 20.3568 26.2171 20.6801 27.7039 21.5105C29.5591 22.5467 30.6168 23.3492 31.3361 24.2659C31.966 25.0688 32.3559 25.9832 32.5435 27.0982C32.6498 27.7298 32.5876 29.2496 32.4293 29.8856C31.9305 31.891 30.7713 33.4663 29.1178 34.3854C28.8755 34.5201 28.658 34.6307 28.6345 34.6311C28.6109 34.6317 28.6992 34.4017 28.8306 34.1201C29.3869 32.9289 29.4502 31.7702 29.0297 30.4804C28.7722 29.6907 28.2472 28.7271 27.1872 27.0985C25.9548 25.205 25.6526 24.7011 25.3494 24.0333Z" fill="var(--fill-0, #F50DB4)"/>
<path id="Vector_7" d="M8.27971 31.2083C9.96617 29.7495 12.0645 28.7131 13.9759 28.395C14.7996 28.2579 16.1718 28.3124 16.9346 28.5123C18.1574 28.8329 19.2511 29.551 19.82 30.4064C20.3759 31.2426 20.6144 31.9711 20.8627 33.5923C20.9607 34.2317 21.0672 34.8738 21.0994 35.0193C21.2859 35.8594 21.6487 36.531 22.0985 36.8682C22.8127 37.4038 24.0426 37.4371 25.2524 36.9536C25.4578 36.8715 25.636 36.8148 25.6486 36.8276C25.6924 36.8723 25.0832 37.2901 24.6534 37.51C24.0751 37.806 23.6153 37.9203 23.0042 37.9203C21.8962 37.9203 20.9762 37.3429 20.2086 36.1653C20.0575 35.9336 19.718 35.2394 19.454 34.6228C18.6436 32.7289 18.2434 32.152 17.3023 31.5206C16.4834 30.9711 15.4272 30.8727 14.6326 31.2719C13.5889 31.7962 13.2977 33.1626 14.0452 34.0286C14.3423 34.3728 14.8963 34.6697 15.3494 34.7274C16.1969 34.8353 16.9253 34.1748 16.9253 33.2981C16.9253 32.7289 16.7118 32.404 16.1741 32.1554C15.4399 31.816 14.6506 32.2128 14.6544 32.9195C14.656 33.2208 14.7841 33.4101 15.079 33.5467C15.2681 33.6344 15.2725 33.6414 15.1183 33.6085C14.4446 33.4654 14.2867 32.6333 14.8284 32.0809C15.4788 31.4178 16.8235 31.7104 17.2853 32.6156C17.4794 32.9958 17.5019 33.753 17.3328 34.2102C16.9542 35.2336 15.8504 35.7718 14.7307 35.479C13.9683 35.2796 13.6579 35.0637 12.7387 34.0937C11.1415 32.4081 10.5215 32.0815 8.21887 31.7132L7.77764 31.6427L8.27971 31.2083Z" fill="var(--fill-0, #F50DB4)"/>
<path id="Vector_8" fill-rule="evenodd" clip-rule="evenodd" d="M0.785528 1.04003C6.11938 7.67243 9.79311 10.4088 10.2014 10.987C10.5384 11.4644 10.4116 11.8935 9.83408 12.2299C9.51295 12.4168 8.85275 12.6063 8.52219 12.6063C8.1483 12.6063 8.01994 12.4586 8.01994 12.4586C7.80315 12.2479 7.68106 12.2848 6.56782 10.2603C5.02229 7.80332 3.72889 5.76516 3.69361 5.73104C3.61202 5.65211 3.61342 5.65479 6.41024 10.7817C6.86213 11.8502 6.50012 12.2425 6.50012 12.3947C6.50012 12.7043 6.41768 12.867 6.04489 13.293C5.42345 14.0034 5.14565 14.8014 4.9451 16.453C4.72029 18.3046 4.08813 19.6125 2.33623 21.8509C1.31072 23.1613 1.14291 23.4014 0.884153 23.9295C0.558214 24.5946 0.468593 24.9671 0.43227 25.8069C0.393878 26.6948 0.468651 27.2684 0.733439 28.1174C0.965251 28.8607 1.20722 29.3514 1.82581 30.333C2.35964 31.1801 2.66703 31.8096 2.66703 32.0558C2.66703 32.2518 2.70354 32.252 3.53076 32.0606C5.5104 31.6027 7.11786 30.7972 8.02193 29.81C8.58143 29.199 8.71276 28.8616 8.71709 28.0243C8.7199 27.4766 8.70103 27.362 8.55653 27.0469C8.32133 26.5342 7.89313 26.1078 6.94933 25.4468C5.7127 24.5807 5.18452 23.8834 5.03862 22.9245C4.91894 22.1377 5.05778 21.5826 5.7419 20.1136C6.44999 18.5931 6.62546 17.9452 6.74416 16.4126C6.82083 15.4225 6.927 15.032 7.20469 14.7185C7.4943 14.3917 7.75501 14.281 8.47174 14.1807C9.64019 14.0171 10.3843 13.7073 10.9959 13.13C11.5264 12.6291 11.7484 12.1464 11.7825 11.4199L11.8084 10.8692L11.5119 10.5151C10.4382 9.23251 0.066484 0.031808 0.000408672 0.031808C-0.0137068 0.031808 0.339611 0.485538 0.785528 1.04003ZM3.26974 26.8116C3.5125 26.3711 3.38352 25.8049 2.97745 25.5283C2.59378 25.2668 1.99776 25.39 1.99776 25.7306C1.99776 25.8345 2.05386 25.9101 2.18028 25.9769C2.39318 26.0891 2.40863 26.2153 2.24113 26.4732C2.07149 26.7344 2.08519 26.9641 2.27976 27.1202C2.59334 27.3717 3.03725 27.2334 3.26974 26.8116Z" fill="var(--fill-0, #F50DB4)"/>
<path id="Vector_9" fill-rule="evenodd" clip-rule="evenodd" d="M12.5457 14.4695C11.9972 14.6421 11.4639 15.2377 11.2989 15.8623C11.1982 16.2432 11.2554 16.9117 11.4062 17.118C11.6498 17.4515 11.8855 17.5393 12.5236 17.5346C13.7728 17.5257 14.8588 16.9768 14.985 16.2906C15.0885 15.7281 14.6116 14.9486 13.9546 14.6064C13.6156 14.4298 12.8946 14.3598 12.5457 14.4695ZM14.0061 15.6395C14.1987 15.359 14.1145 15.0559 13.7868 14.8509C13.1629 14.4606 12.2193 14.7836 12.2193 15.3875C12.2193 15.688 12.7114 16.016 13.1624 16.016C13.4626 16.016 13.8734 15.8326 14.0061 15.6395Z" fill="var(--fill-0, #F50DB4)"/>
</g>
<defs>
<clipPath id="clip0_0_103">
<rect width="34" height="38" fill="white"/>
</clipPath>
</defs>
</svg>
