<svg preserveAspectRatio="none" width="100%" height="100%" overflow="visible" style="display: block;" viewBox="0 0 72 72" fill="none" xmlns="http://www.w3.org/2000/svg">
<g id="Frame 1321322911">
<rect width="72" height="72" rx="16" fill="var(--fill-0, #2860EC)"/>
<path id="Vector" fill-rule="evenodd" clip-rule="evenodd" d="M26.5933 56H44.4067C50.8097 56 56 50.8097 56 44.4067V26.5934C56 20.1903 50.8097 15 44.4067 15L26.5933 15C20.1902 15 15 20.1903 15 26.5934L15 44.4067C15 50.8097 20.1902 56 26.5933 56ZM45.0535 43.2608C41.4055 40.9858 36.5586 38.1934 32.5742 36.0413C31.6072 35.5195 30.3131 35.7143 29.5199 36.8461C28.0403 38.9541 26.2685 41.6142 25.0579 43.7107C24.5547 44.5595 25.2272 45.682 26.2337 45.682H44.2836C45.5845 45.682 46.1295 44.0353 45.0535 43.2608ZM38.3843 35.3413C34.5346 33.2889 29.1356 30.165 25.2998 27.8041C24.1147 27.0736 24.5878 25.318 25.97 25.3203C28.2346 25.3203 31.9146 25.3197 35.576 25.3192C39.2004 25.3186 42.8066 25.318 45.0032 25.318C46.1095 25.318 46.6777 26.4637 46.2069 27.2661C44.6183 29.9725 42.8324 32.7044 41.3505 34.7429C40.6896 35.652 39.3491 35.8562 38.3843 35.3413Z" fill="var(--fill-0, white)"/>
</g>
</svg>
